<?xml version="1.0" encoding="utf-8"?>
<!-- Generator: Adobe Illustrator 26.0.0, SVG Export Plug-In . SVG Version: 6.00 Build 0)  -->
<svg version="1.1" id="Layer_1" xmlns="http://www.w3.org/2000/svg" xmlns:xlink="http://www.w3.org/1999/xlink" x="0px" y="0px"
	 viewBox="0 0 1920 1080" style="enable-background:new 0 0 1920 1080;" xml:space="preserve">
<style type="text/css">
	.st0{fill:#FF1472;}
</style>
<g id="Group_10" transform="translate(-175.709 -76.685)">
	<path id="Path_1" class="st0" d="M193.5,237.6h60.4v314.1h-60.4L193.5,237.6L193.5,237.6z M360.2,291.2c-19.6-0.6-39,4.7-55.6,15.1
		c-14.8,9.5-27.3,22.2-36.6,37.1c-8.3,13-14.4,27.2-17.9,42.2l-0.6-35.8c0.4-4.2,1.6-10.8,3.5-19.8c2.4-10.5,5.9-20.7,10.4-30.5
		c5.2-11.7,12-22.6,20.1-32.4c8.7-10.5,19.4-19.2,31.5-25.5c14.1-7.1,29.7-10.5,45.4-10.1L360.2,291.2z M657.4,449.8h57.3
		c-3.2,20.2-11.4,39.2-23.9,55.4c-13.2,16.8-30.3,30.2-49.8,39c-22.8,10.1-47.5,15-72.4,14.5c-30.4,0.5-60.5-6.6-87.5-20.8
		c-25-13.2-45.9-33.1-60.4-57.3c-15-25.8-22.6-55.2-22-85c-0.7-30,6.7-59.7,21.4-85.9c14-24.3,34.5-44.2,59.2-57.6
		c26.5-14.2,56.2-21.3,86.2-20.8c29.8-1,59.4,5.9,85.6,20.1c23.2,13.6,41.2,34.5,51.2,59.5c11.9,31.2,16.5,64.6,13.5,97.9H458.5
		c1.8,17.9,7.7,35.2,17.3,50.4c9.4,14.6,22.4,26.6,37.8,34.6c16.8,8.6,35.5,13,54.5,12.6c20.5,0.7,40.6-4.8,57.9-15.7
		C640.8,481.1,651.9,466.6,657.4,449.8z M566.2,282.9c-24.5-0.9-48.5,6.8-68,21.7c-18.1,14.6-30.8,34.9-35.9,57.6h193.2
		c-0.3-22.7-10.4-44.2-27.7-58.9C610.3,289.5,588.5,282.3,566.2,282.9z M852,107.9v64.8H777v-64.8H852z M784.6,237.6h59.8v314.1
		h-59.8L784.6,237.6z M929.4,237.6h60.4v314.1h-60.4L929.4,237.6z M1109.5,231.3c16.3-0.2,32.4,2.3,47.8,7.6
		c13.7,4.7,26.1,12.3,36.5,22.3c10.4,10.4,18.4,22.8,23.6,36.5c5.9,15.8,8.8,32.5,8.5,49.4v204.6h-59.8V360.4
		c1.6-20.2-4.9-40.2-17.9-55.7c-14.8-13.4-34.5-20.1-54.4-18.6c-18.1-0.2-35.9,4.3-51.6,13.2c-15.2,8.5-28.3,20.5-38.1,34.9
		c-9.9,14.5-16.1,31.3-18,48.8l-0.7-34.6c1.9-16.2,6.5-31.9,13.5-46.6c6.7-13.9,15.6-26.5,26.4-37.5c10.7-10.7,23.4-19,37.5-24.6
		C1077.7,234.1,1093.5,231.2,1109.5,231.3L1109.5,231.3z M1547.6,449.8h57.3c-3.2,20.2-11.4,39.2-23.9,55.4
		c-13.2,16.8-30.3,30.2-49.8,39c-22.8,10.1-47.5,15-72.4,14.5c-30.4,0.5-60.5-6.6-87.4-20.8c-25-13.2-45.9-33.1-60.4-57.3
		c-15-25.8-22.6-55.2-22-85c-0.7-30,6.7-59.7,21.4-85.9c14-24.3,34.5-44.2,59.2-57.6c26.5-14.2,56.2-21.3,86.2-20.8
		c29.8-1,59.4,5.9,85.6,20.1c23.2,13.6,41.2,34.5,51.2,59.5c11.8,31.2,16.5,64.7,13.5,97.9h-257.5c1.8,17.9,7.7,35.2,17.4,50.4
		c9.4,14.6,22.4,26.6,37.8,34.6c16.8,8.6,35.5,13,54.5,12.6c20.4,0.7,40.7-4.8,57.9-15.7C1531,481,1542.1,466.6,1547.6,449.8z
		 M1456.3,282.9c-24.5-0.9-48.6,6.8-68,21.7c-18.1,14.6-30.8,34.9-35.9,57.6h193.2c-0.3-22.7-10.4-44.2-27.7-58.9
		C1500.5,289.5,1478.7,282.3,1456.3,282.9z"/>
	<path id="Path_2" class="st0" d="M339.5,1008.8c-26,0.2-51.6-7-73.7-20.8c-22.5-14.1-40.8-34-52.9-57.6
		c-13.4-26.2-20.1-55.3-19.5-84.7c-0.6-29.4,6.2-58.5,19.8-84.7c12.6-23.9,31.4-43.9,54.4-57.9c23.3-14.1,50.2-21.4,77.4-21.1
		c26.3-1.7,52.3,6.1,73.3,22c17.9,15.5,30.7,36.2,36.5,59.2c7.2,26.9,10.7,54.6,10.4,82.5c-0.1,18-2.2,36-6.3,53.5
		c-4.1,18.7-10.9,36.8-20.1,53.5c-9.1,16.6-22.3,30.6-38.4,40.6C382.1,1004.2,360.9,1009.6,339.5,1008.8z M356.5,956.6
		c19.8,0.7,39.4-4.5,56.3-14.8c15.1-9.7,27.1-23.6,34.3-40c7.7-17.7,11.6-36.8,11.3-56c0.4-20.1-3.6-40.1-11.7-58.6
		c-7.3-16.2-19.4-29.9-34.6-39c-17-9.7-36.2-14.5-55.7-13.8c-28.8-1.7-56.7,9.9-75.9,31.5c-18.4,22.5-27.9,50.9-26.8,80
		c-0.4,20,4.1,39.8,13.2,57.6c8.4,16.1,20.9,29.5,36.3,39C319.4,952,337.8,956.9,356.5,956.6z M458.5,688.4h60.4v314.1h-55.4
		l-1.3-11.7c-0.8-7.8-1.7-17.2-2.5-28s-1.3-20.5-1.3-29L458.5,688.4z M724.2,953.4c-24.8,0.3-49.3-5.1-71.7-15.7
		c-21.3-10.1-39.3-26-51.9-46c-13.3-22-20-47.3-19.2-73c-0.7-25.5,5.9-50.7,18.9-72.7c12.4-20.2,30.1-36.5,51.2-47.2
		c22.5-11.3,47.5-17.1,72.7-16.7c7.6,0,15.2,0.5,22.7,1.6c7,1,14,2.6,20.8,4.7h137.2V745c-19.4-0.1-38.6-3.3-57-9.4
		c-17.2-5.5-33.9-12.2-50.1-20.2l-1.9-3.2c13.7,7.2,26.2,16.4,37.1,27.4c10.3,10.3,18.5,22.5,24.3,35.9c5.8,14.1,8.7,29.2,8.5,44.4
		c0.7,25.2-5.8,50-18.6,71.7c-12.2,20-29.9,35.9-51,46C773.8,948.4,749.1,953.7,724.2,953.4z M820.5,1129.7v-14.4
		c1.7-17.2-4.8-34.3-17.6-46c-15.2-10.2-33.3-15.1-51.6-13.8h-73.7c-13.3,0.2-26.6-1.1-39.7-3.8c-9.6-2-18.8-5.8-27.1-11.1
		c-6.7-4.3-12.2-10.4-15.7-17.6c-3.4-7.2-5.1-15-5-23c-1-14,4.6-27.8,15.1-37.1c11.1-8.8,24.3-14.4,38.4-16.1
		c15.7-2.3,31.5-2.4,47.2-0.3l33.4,6.9c-18.4,0.5-36.8,2.8-54.8,6.9c-10.8,1.3-18.9,10.5-18.9,21.4c-0.2,6,2.7,11.7,7.5,15.1
		c6.3,4.2,13.8,6.2,21.4,5.7h76.8c21.7-0.3,43.2,2.8,63.9,9.1c17.6,5.3,33,16.1,44.1,30.9c11.6,17.6,17.3,38.4,16.1,59.5v27.7
		L820.5,1129.7L820.5,1129.7z M724.2,902.4c14.3,0.2,28.5-3.1,41.2-9.7c12.4-6.5,22.8-16.3,29.9-28.4c7.9-13.7,11.8-29.2,11.3-45
		c0.5-16.1-3.3-32.1-11-46.3c-6.9-12.4-17.3-22.5-29.9-29c-12.9-6.6-27.1-9.9-41.5-9.8c-14.5-0.1-28.9,3.2-41.9,9.8
		c-12.7,6.4-23.3,16.3-30.5,28.6c-8,14.2-11.9,30.3-11.3,46.6c-0.5,15.8,3.4,31.4,11.3,45.1c7.2,12.1,17.6,21.9,30.1,28.4
		C695.1,899.3,709.5,902.6,724.2,902.4z M1258.7,1002.5h-59.8V688.4h59.8V1002.5z M1202,854.6l0.6,18.9c-0.9,8.2-2.2,16.3-4.1,24.2
		c-2.7,12-6.5,23.7-11.3,34.9c-5.5,13-12.8,25.3-21.5,36.5c-9.2,12-20.9,21.8-34.2,29c-15.6,8-32.9,11.8-50.4,11.3
		c-14-0.1-27.8-2-41.3-5.7c-14-3.7-27.1-10.1-38.7-18.8c-12.3-9.5-22-22-28.3-36.2c-7.7-18.2-11.3-37.8-10.7-57.6V688.4h60.4v190.1
		c-0.8,15.7,2.3,31.3,9.1,45.4c5.7,10.6,15,18.8,26.1,23.2c12.2,4.8,25.3,7.1,38.4,6.9c19.6,0.7,38.9-5,55.1-16.1
		c14.4-10.2,26.4-23.5,34.9-39C1194.1,885.2,1199.4,870.2,1202,854.6z M1410.4,558.7v64.8h-74.9v-64.8L1410.4,558.7L1410.4,558.7z
		 M1343,688.4h59.8v314.1H1343L1343,688.4z M1494.1,562.5h60.4v440h-60.4L1494.1,562.5z M1770.5,1008.8c-26,0.2-51.6-7-73.7-20.8
		c-22.5-14.1-40.8-34-52.9-57.6c-13.4-26.2-20.1-55.3-19.5-84.7c-0.6-29.4,6.2-58.5,19.8-84.7c12.6-23.9,31.4-43.9,54.4-57.9
		c23.3-14.1,50.2-21.4,77.4-21.1c26.3-1.7,52.3,6.1,73.3,22c18,15.5,30.8,36.2,36.6,59.3c7.2,26.9,10.7,54.6,10.4,82.5
		c-0.1,18-2.2,36-6.3,53.5c-4.2,18.7-10.9,36.7-20.2,53.5c-9.1,16.6-22.3,30.6-38.4,40.6C1813.1,1004.2,1791.9,1009.6,1770.5,1008.8
		z M1787.5,956.6c19.8,0.7,39.4-4.5,56.3-14.8c15.1-9.7,27.1-23.6,34.3-40c7.7-17.7,11.6-36.8,11.3-56c0.4-20.1-3.6-40.1-11.7-58.6
		c-7.3-16.2-19.4-29.9-34.6-39c-16.9-9.7-36.2-14.5-55.7-13.8c-28.8-1.7-56.7,9.9-75.8,31.5c-18.4,22.5-27.9,50.9-26.8,80
		c-0.4,20,4.1,39.8,13.2,57.6c8.3,16,20.8,29.5,36.2,39C1750.2,952,1768.7,957,1787.5,956.6z M1889.5,688.4h60.4v314.1h-55.4
		l-1.3-11.7c-0.8-7.8-1.7-17.2-2.5-28s-1.3-20.5-1.3-29L1889.5,688.4z"/>
</g>
</svg>
